HIERARCHY
ROOT mixamorig:Hips
{
	OFFSET -0.000008 104.274872 1.554316
	CHANNELS 6 Xposition Yposition Zposition Xrotation Yrotation Zrotation
	JOINT mixamorig:Spine
	{
		OFFSET -0.000005 10.181595 0.131519
		CHANNELS 6 Xposition Yposition Zposition Xrotation Yrotation Zrotation
		JOINT mixamorig:Spine1
		{
			OFFSET -0.000000 9.893959 -1.470707
			CHANNELS 6 Xposition Yposition Zposition Xrotation Yrotation Zrotation
			JOINT mixamorig:Spine2
			{
				OFFSET -0.000000 9.220757 -1.370641
				CHANNELS 6 Xposition Yposition Zposition Xrotation Yrotation Zrotation
				JOINT mixamorig:Neck
				{
					OFFSET 0.000001 16.740417 -2.049036
					CHANNELS 6 Xposition Yposition Zposition Xrotation Yrotation Zrotation
					JOINT mixamorig:Head
					{
						OFFSET 0.000000 9.617874 1.685006
						CHANNELS 6 Xposition Yposition Zposition Xrotation Yrotation Zrotation
						JOINT mixamorig:HeadTop_End
						{
							OFFSET 0.000002 22.037354 7.501101
							CHANNELS 6 Xposition Yposition Zposition Xrotation Yrotation Zrotation
							End Site
							{
								OFFSET 0.000168 2310.654297 -282.823242
							}
						}
					}
				}
				JOINT mixamorig:RightShoulder
				{
					OFFSET -4.569970 11.014908 -2.160885
					CHANNELS 6 Xposition Yposition Zposition Xrotation Yrotation Zrotation
					JOINT mixamorig:RightArm
					{
						OFFSET -10.592851 -0.524811 -2.232101
						CHANNELS 6 Xposition Yposition Zposition Xrotation Yrotation Zrotation
						JOINT mixamorig:RightForeArm
						{
							OFFSET -27.841511 0.000031 -0.000004
							CHANNELS 6 Xposition Yposition Zposition Xrotation Yrotation Zrotation
							JOINT mixamorig:RightHand
							{
								OFFSET -28.328831 -0.000015 0.000015
								CHANNELS 6 Xposition Yposition Zposition Xrotation Yrotation Zrotation
								JOINT mixamorig:RightHandThumb1
								{
									OFFSET -2.464806 -1.573990 2.681852
									CHANNELS 6 Xposition Yposition Zposition Xrotation Yrotation Zrotation
									JOINT mixamorig:RightHandThumb2
									{
										OFFSET -3.215179 -1.872803 1.924282
										CHANNELS 6 Xposition Yposition Zposition Xrotation Yrotation Zrotation
										JOINT mixamorig:RightHandThumb3
										{
											OFFSET -2.654831 -1.527969 1.512609
											CHANNELS 6 Xposition Yposition Zposition Xrotation Yrotation Zrotation
											JOINT mixamorig:RightHandThumb4
											{
												OFFSET -2.018814 -1.152008 1.108052
												CHANNELS 6 Xposition Yposition Zposition Xrotation Yrotation Zrotation
												End Site
												{
													OFFSET -188.809540 -114.533607 132.431396
												}
											}
										}
									}
								}
								JOINT mixamorig:RightHandIndex1
								{
									OFFSET -9.108284 -0.517868 2.259835
									CHANNELS 6 Xposition Yposition Zposition Xrotation Yrotation Zrotation
									JOINT mixamorig:RightHandIndex2
									{
										OFFSET -3.699989 0.000000 0.001215
										CHANNELS 6 Xposition Yposition Zposition Xrotation Yrotation Zrotation
										JOINT mixamorig:RightHandIndex3
										{
											OFFSET -2.850006 0.000031 -0.000522
											CHANNELS 6 Xposition Yposition Zposition Xrotation Yrotation Zrotation
											JOINT mixamorig:RightHandIndex4
											{
												OFFSET -2.772186 -0.000015 -0.000020
												CHANNELS 6 Xposition Yposition Zposition Xrotation Yrotation Zrotation
												End Site
												{
													OFFSET -277.218445 0.000000 -0.050231
												}
											}
										}
									}
								}
								JOINT mixamorig:RightHandMiddle1
								{
									OFFSET -9.532516 -0.000031 -0.000023
									CHANNELS 6 Xposition Yposition Zposition Xrotation Yrotation Zrotation
									JOINT mixamorig:RightHandMiddle2
									{
										OFFSET -3.700005 -0.000015 0.003713
										CHANNELS 6 Xposition Yposition Zposition Xrotation Yrotation Zrotation
										JOINT mixamorig:RightHandMiddle3
										{
											OFFSET -2.949974 0.000015 -0.002054
											CHANNELS 6 Xposition Yposition Zposition Xrotation Yrotation Zrotation
											JOINT mixamorig:RightHandMiddle4
											{
												OFFSET -2.946640 0.000000 -0.000156
												CHANNELS 6 Xposition Yposition Zposition Xrotation Yrotation Zrotation
												End Site
												{
													OFFSET -294.664337 0.000000 -0.113670
												}
											}
										}
									}
								}
								JOINT mixamorig:RightHandRing1
								{
									OFFSET -9.103600 -0.043076 -1.865134
									CHANNELS 6 Xposition Yposition Zposition Xrotation Yrotation Zrotation
									JOINT mixamorig:RightHandRing2
									{
										OFFSET -3.379288 0.000000 -0.001055
										CHANNELS 6 Xposition Yposition Zposition Xrotation Yrotation Zrotation
										JOINT mixamorig:RightHandRing3
										{
											OFFSET -2.889687 -0.000015 0.000379
											CHANNELS 6 Xposition Yposition Zposition Xrotation Yrotation Zrotation
											JOINT mixamorig:RightHandRing4
											{
												OFFSET -2.638809 -0.000015 0.000941
												CHANNELS 6 Xposition Yposition Zposition Xrotation Yrotation Zrotation
												End Site
												{
													OFFSET -263.880371 0.000000 0.516020
												}
											}
										}
									}
								}
								JOINT mixamorig:RightHandPinky1
								{
									OFFSET -8.076683 -0.486710 -3.806280
									CHANNELS 6 Xposition Yposition Zposition Xrotation Yrotation Zrotation
									JOINT mixamorig:RightHandPinky2
									{
										OFFSET -3.600014 -0.000015 -0.003747
										CHANNELS 6 Xposition Yposition Zposition Xrotation Yrotation Zrotation
										JOINT mixamorig:RightHandPinky3
										{
											OFFSET -2.099983 0.000000 -0.005739
											CHANNELS 6 Xposition Yposition Zposition Xrotation Yrotation Zrotation
											JOINT mixamorig:RightHandPinky4
											{
												OFFSET -2.115768 -0.000031 -0.003680
												CHANNELS 6 Xposition Yposition Zposition Xrotation Yrotation Zrotation
												End Site
												{
													OFFSET -211.577087 0.000000 -0.350686
												}
											}
										}
									}
								}
							}
						}
					}
				}
				JOINT mixamorig:LeftShoulder
				{
					OFFSET 4.570447 11.014725 -2.160855
					CHANNELS 6 Xposition Yposition Zposition Xrotation Yrotation Zrotation
					JOINT mixamorig:LeftArm
					{
						OFFSET 10.592371 -0.524597 -2.232119
						CHANNELS 6 Xposition Yposition Zposition Xrotation Yrotation Zrotation
						JOINT mixamorig:LeftForeArm
						{
							OFFSET 27.841532 -0.000031 0.000026
							CHANNELS 6 Xposition Yposition Zposition Xrotation Yrotation Zrotation
							JOINT mixamorig:LeftHand
							{
								OFFSET 28.328846 -0.000061 0.000022
								CHANNELS 6 Xposition Yposition Zposition Xrotation Yrotation Zrotation
								JOINT mixamorig:LeftHandThumb1
								{
									OFFSET 2.466141 -1.576172 2.681732
									CHANNELS 6 Xposition Yposition Zposition Xrotation Yrotation Zrotation
									JOINT mixamorig:LeftHandThumb2
									{
										OFFSET 3.217812 -1.872070 1.916482
										CHANNELS 6 Xposition Yposition Zposition Xrotation Yrotation Zrotation
										JOINT mixamorig:LeftHandThumb3
										{
											OFFSET 2.656029 -1.528778 1.514513
											CHANNELS 6 Xposition Yposition Zposition Xrotation Yrotation Zrotation
											JOINT mixamorig:LeftHandThumb4
											{
												OFFSET 2.020889 -1.154053 1.115139
												CHANNELS 6 Xposition Yposition Zposition Xrotation Yrotation Zrotation
												End Site
												{
													OFFSET 190.885437 -115.081749 130.048782
												}
											}
										}
									}
								}
								JOINT mixamorig:LeftHandIndex1
								{
									OFFSET 9.109314 -0.518021 2.259871
									CHANNELS 6 Xposition Yposition Zposition Xrotation Yrotation Zrotation
									JOINT mixamorig:LeftHandIndex2
									{
										OFFSET 3.699989 0.000000 -0.000322
										CHANNELS 6 Xposition Yposition Zposition Xrotation Yrotation Zrotation
										JOINT mixamorig:LeftHandIndex3
										{
											OFFSET 2.850006 0.000000 0.000352
											CHANNELS 6 Xposition Yposition Zposition Xrotation Yrotation Zrotation
											JOINT mixamorig:LeftHandIndex4
											{
												OFFSET 2.774864 -0.000031 -0.000027
												CHANNELS 6 Xposition Yposition Zposition Xrotation Yrotation Zrotation
												End Site
												{
													OFFSET 277.486267 0.000000 -0.009857
												}
											}
										}
									}
								}
								JOINT mixamorig:LeftHandMiddle1
								{
									OFFSET 9.533394 0.000061 0.000044
									CHANNELS 6 Xposition Yposition Zposition Xrotation Yrotation Zrotation
									JOINT mixamorig:LeftHandMiddle2
									{
										OFFSET 3.699989 -0.000015 -0.000231
										CHANNELS 6 Xposition Yposition Zposition Xrotation Yrotation Zrotation
										JOINT mixamorig:LeftHandMiddle3
										{
											OFFSET 2.949997 -0.000015 -0.000059
											CHANNELS 6 Xposition Yposition Zposition Xrotation Yrotation Zrotation
											JOINT mixamorig:LeftHandMiddle4
											{
												OFFSET 2.952896 0.000031 0.000063
												CHANNELS 6 Xposition Yposition Zposition Xrotation Yrotation Zrotation
												End Site
												{
													OFFSET 295.289337 0.000000 0.022810
												}
											}
										}
									}
								}
								JOINT mixamorig:LeftHandRing1
								{
									OFFSET 9.104523 -0.042999 -1.865074
									CHANNELS 6 Xposition Yposition Zposition Xrotation Yrotation Zrotation
									JOINT mixamorig:LeftHandRing2
									{
										OFFSET 3.150009 -0.000031 0.000043
										CHANNELS 6 Xposition Yposition Zposition Xrotation Yrotation Zrotation
										JOINT mixamorig:LeftHandRing3
										{
											OFFSET 2.949982 -0.000015 0.000040
											CHANNELS 6 Xposition Yposition Zposition Xrotation Yrotation Zrotation
											JOINT mixamorig:LeftHandRing4
											{
												OFFSET 2.644348 0.000000 0.000057
												CHANNELS 6 Xposition Yposition Zposition Xrotation Yrotation Zrotation
												End Site
												{
													OFFSET 264.434631 0.000000 0.012105
												}
											}
										}
									}
								}
								JOINT mixamorig:LeftHandPinky1
								{
									OFFSET 8.077789 -0.486847 -3.806259
									CHANNELS 6 Xposition Yposition Zposition Xrotation Yrotation Zrotation
									JOINT mixamorig:LeftHandPinky2
									{
										OFFSET 3.599953 0.000031 0.014727
										CHANNELS 6 Xposition Yposition Zposition Xrotation Yrotation Zrotation
										JOINT mixamorig:LeftHandPinky3
										{
											OFFSET 2.100021 0.000015 0.007705
											CHANNELS 6 Xposition Yposition Zposition Xrotation Yrotation Zrotation
											JOINT mixamorig:LeftHandPinky4
											{
												OFFSET 2.125504 0.000031 0.007517
												CHANNELS 6 Xposition Yposition Zposition Xrotation Yrotation Zrotation
												End Site
												{
													OFFSET 212.550781 0.000000 0.625752
												}
											}
										}
									}
								}
							}
						}
					}
				}
			}
		}
	}
	JOINT mixamorig:RightUpLeg
	{
		OFFSET -8.207787 -6.751648 -1.599560
		CHANNELS 6 Xposition Yposition Zposition Xrotation Yrotation Zrotation
		JOINT mixamorig:RightLeg
		{
			OFFSET -0.000002 -44.370117 0.345942
			CHANNELS 6 Xposition Yposition Zposition Xrotation Yrotation Zrotation
			JOINT mixamorig:RightFoot
			{
				OFFSET 0.000003 -44.423679 -3.043532
				CHANNELS 6 Xposition Yposition Zposition Xrotation Yrotation Zrotation
				JOINT mixamorig:RightToeBase
				{
					OFFSET -0.000002 -8.728671 10.710558
					CHANNELS 6 Xposition Yposition Zposition Xrotation Yrotation Zrotation
					JOINT mixamorig:RightToe_End
					{
						OFFSET -0.000001 -0.000679 9.278119
						CHANNELS 6 Xposition Yposition Zposition Xrotation Yrotation Zrotation
						End Site
						{
							OFFSET 0.000000 -0.067690 927.812134
						}
					}
				}
			}
		}
	}
	JOINT mixamorig:LeftUpLeg
	{
		OFFSET 8.207793 -6.751686 -1.599556
		CHANNELS 6 Xposition Yposition Zposition Xrotation Yrotation Zrotation
		JOINT mixamorig:LeftLeg
		{
			OFFSET -0.000004 -44.370014 0.346954
			CHANNELS 6 Xposition Yposition Zposition Xrotation Yrotation Zrotation
			JOINT mixamorig:LeftFoot
			{
				OFFSET -0.000001 -44.423672 -3.044401
				CHANNELS 6 Xposition Yposition Zposition Xrotation Yrotation Zrotation
				JOINT mixamorig:LeftToeBase
				{
					OFFSET -0.000002 -8.728669 10.710558
					CHANNELS 6 Xposition Yposition Zposition Xrotation Yrotation Zrotation
					JOINT mixamorig:LeftToe_End
					{
						OFFSET -0.000003 -0.000679 9.278133
						CHANNELS 6 Xposition Yposition Zposition Xrotation Yrotation Zrotation
						End Site
						{
							OFFSET 0.000000 -0.068021 927.813477
						}
					}
				}
			}
		}
	}
}
MOTION
Frames: 3
Frame Time: 0.033333
0.000006 104.270477 1.554256 0.000010 0.000003 -0.000113 -0.000005 10.181587 0.131522 0.000001 -0.000003 0.000084 -0.000000 9.893967 -1.470711 0.000001 0.000000 -0.000000 -0.000000 9.220802 -1.370642 0.000000 -0.000000 -0.000000 0.000001 16.740433 -2.049030 0.000000 -0.000000 -0.000000 0.000000 9.617859 1.685014 0.000000 0.000000 0.000000 0.000002 22.037384 7.501101 0.000000 -0.000000 0.000000 -4.569968 11.014880 -2.160881 0.000008 0.000001 -0.000038 -10.592737 -0.524788 -2.231701 -64.143399 75.774153 51.985546 -27.841505 0.000008 0.000569 70.330287 125.397984 -107.543214 -28.328825 -0.000004 0.000024 -0.000319 -0.000043 0.000003 -2.464949 -1.573960 2.681985 346.708298 30.118556 335.891819 -3.215283 -1.872797 1.924402 332.540874 27.089288 337.987977 -2.654928 -1.528141 1.512775 134.063554 -195.567591 168.216057 -2.018835 -1.152013 1.108043 -0.000003 -0.000004 0.000005 -9.108282 -0.518078 2.260154 286.133509 -0.906330 19.291844 -3.700062 -0.000124 0.001544 281.029745 21.430475 14.819680 -2.850090 -0.000107 -0.000204 -72.793404 17.390741 11.987634 -2.772160 -0.000015 -0.000036 0.000000 -0.000002 -0.000001 -9.532503 -0.000256 0.000201 297.571507 -4.273966 3.634630 -3.700049 -0.000164 0.004027 288.547297 13.363362 10.680388 -2.950024 -0.000132 -0.001670 -84.963708 23.241769 20.597274 -2.946636 0.000005 -0.000171 -0.000002 0.000002 0.000002 -9.103643 -0.043260 -1.864882 293.661934 -0.157576 3.962675 -3.379313 -0.000180 -0.000800 294.041884 11.294559 4.419152 -2.889764 -0.000123 0.000705 -72.416213 18.108225 8.705574 -2.638806 -0.000041 0.000956 -0.000001 -0.000000 0.000002 -8.076724 -0.486870 -3.805955 280.629250 10.265345 10.313884 -3.599893 -0.000278 -0.003532 296.657382 -17.124782 -0.825523 -2.099910 -0.000253 -0.005530 -65.440309 -14.518689 -3.336140 -2.115793 -0.000053 -0.003679 -0.000004 -0.000003 -0.000005 4.570446 11.014691 -2.160851 -0.000018 0.000010 -0.000021 10.592397 -0.524604 -2.232225 -49.202504 -59.117671 -29.112650 27.841599 -0.000063 0.000023 250.922108 -49.975350 293.605572 28.328819 -0.000027 0.000023 0.000021 -0.000090 0.000002 2.466176 -1.576182 2.681793 354.876439 -18.941737 -351.006727 3.217831 -1.872009 1.916568 134.248037 164.235573 192.342130 2.656016 -1.528780 1.514584 273.650464 42.761175 37.459083 2.020898 -1.154073 1.115143 0.000000 0.000000 0.000006 9.109161 -0.518047 2.259962 180.963444 -15.027468 -532.776065 3.700140 0.000123 -0.000347 -229.841630 -30.988824 -298.318238 2.850107 0.000188 0.000242 -263.719423 -23.201422 25.807730 2.774855 -0.000034 -0.000029 -0.000000 -0.000003 0.000001 9.533504 0.000393 0.000099 -184.911690 -1.202547 27.303616 3.700091 0.000273 -0.000315 -232.695201 -15.276686 -329.702794 2.950064 0.000184 -0.000210 -269.995575 -13.450890 -346.545111 2.952883 -0.000017 0.000058 0.000001 -0.000002 -0.000001 9.104317 -0.042987 -1.865000 -179.110509 -3.693833 -152.896339 3.150012 0.000318 -0.000104 119.457317 -2.411451 4.133007 2.949979 0.000169 -0.000116 81.200444 -4.012007 3.440465 2.644327 0.000048 0.000051 -0.000004 0.000001 -0.000001 8.077904 -0.486744 -3.806197 -186.148459 -5.586156 -266.339948 3.599916 0.000372 0.014590 -242.235664 8.417537 -13.325415 2.099930 0.000228 0.007496 -273.232101 13.459418 -12.442333 2.125497 -0.000017 0.007513 -0.000000 0.000001 0.000003 -8.207786 -6.751667 -1.599560 -0.077001 -0.000003 0.000080 -0.000002 -44.370110 0.345938 0.153719 -0.000000 -0.000000 0.000000 -44.423679 -3.043532 -0.076700 0.000000 -0.000002 -0.000006 -8.728667 10.710559 -0.000009 -0.000000 -0.000000 -0.000001 -0.000679 9.278123 0.000000 -0.000000 -0.000000 8.207792 -6.751710 -1.599556 -0.074518 -0.000003 0.000081 -0.000002 -44.370014 0.346960 0.148822 0.000002 0.000000 -0.000001 -44.423664 -3.044403 -0.074314 0.000000 -0.000002 -0.000004 -8.728671 10.710558 0.000007 -0.000000 -0.000000 0.000000 -0.000680 9.278137 -0.000000 0.000000 -0.000001 
0.000006 104.270477 1.554256 0.000010 0.000003 -0.000113 -0.000005 10.181587 0.131522 0.000001 -0.000003 0.000084 -0.000000 9.893967 -1.470711 0.000001 0.000000 -0.000000 -0.000000 9.220802 -1.370642 0.000000 -0.000000 -0.000000 0.000001 16.740433 -2.049030 0.000000 -0.000000 -0.000000 0.000000 9.617859 1.685014 0.000000 0.000000 0.000000 0.000002 22.037384 7.501101 0.000000 -0.000000 0.000000 -4.569968 11.014880 -2.160881 0.000008 0.000001 -0.000038 -10.592737 -0.524792 -2.231700 -60.425871 77.443041 50.054112 -27.841520 0.000004 0.000566 71.535324 129.865160 -114.007776 -28.328835 0.000019 0.000017 -0.000320 -0.000045 0.000006 -2.464940 -1.573948 2.681981 351.742229 31.308242 336.523175 -3.215297 -1.872746 1.924411 337.138192 27.985305 338.984556 -2.654925 -1.528114 1.512782 138.275527 -198.284421 168.692586 -2.018834 -1.151981 1.108073 -0.000001 -0.000001 0.000002 -9.108261 -0.518079 2.260155 283.264009 -2.452954 16.227105 -3.700068 -0.000127 0.001573 278.914709 21.191855 15.309968 -2.850075 -0.000119 -0.000203 -73.362905 18.024068 12.503671 -2.772165 -0.000011 -0.000041 0.000000 0.000001 0.000001 -9.532468 -0.000271 0.000197 295.403496 -6.988697 2.239726 -3.700046 -0.000162 0.004021 287.378406 13.120598 10.780280 -2.950058 -0.000137 -0.001661 -85.983851 23.453864 21.380710 -2.946620 0.000004 -0.000170 -0.000003 -0.000002 -0.000002 -9.103613 -0.043260 -1.864877 290.997833 -1.678299 2.830049 -3.379319 -0.000178 -0.000800 292.987904 11.299261 4.233955 -2.889790 -0.000141 0.000706 -73.284959 18.256580 9.149446 -2.638807 -0.000026 0.000940 -0.000001 0.000002 0.000002 -8.076694 -0.486888 -3.805943 276.944828 7.063792 7.551637 -3.599874 -0.000292 -0.003523 293.264472 -19.971024 -2.441353 -2.099918 -0.000272 -0.005539 -66.633481 -14.739902 -3.807239 -2.115791 -0.000058 -0.003674 0.000001 0.000000 -0.000000 4.570446 11.014691 -2.160851 -0.000018 0.000010 -0.000021 10.592411 -0.524615 -2.232258 -52.103268 -66.143948 -35.316224 27.841660 -0.000087 -0.000022 251.879864 -61.002072 281.807185 28.328848 -0.000053 0.000020 0.000021 -0.000089 -0.000000 2.466159 -1.576198 2.681819 324.581846 17.128537 -352.058959 3.217823 -1.872014 1.916526 123.981976 153.491740 197.050958 2.656021 -1.528797 1.514586 273.164400 41.640306 37.410859 2.020894 -1.154055 1.115147 0.000003 0.000004 0.000004 9.109233 -0.517708 2.260047 213.792120 -9.504505 -390.591772 3.700004 0.000000 -0.000276 -194.037956 -26.844604 -234.509955 2.850134 0.000179 0.000303 -233.293362 -23.341492 44.746092 2.774880 -0.000034 -0.000029 0.000000 0.000000 -0.000000 9.533456 0.000383 0.000187 -154.518687 1.568351 6.961895 3.700114 0.000085 -0.000196 -196.345290 -18.239342 -263.649755 2.950158 0.000210 -0.000140 -237.825821 -22.413192 -320.527363 2.952858 -0.000016 0.000074 0.000002 -0.000002 -0.000003 9.104532 -0.042659 -1.864916 -151.763716 -0.860046 -3.424568 3.150079 0.000135 0.000072 163.837824 -12.214539 74.014423 2.950071 0.000178 0.000005 121.861257 -20.041739 35.271353 2.644301 0.000038 0.000053 -0.000000 -0.000002 0.000001 8.077656 -0.486493 -3.806127 -164.552795 -5.757372 -402.513921 3.600010 0.000425 0.014714 -199.314755 -0.612933 6.212998 2.099989 0.000365 0.007597 -228.195923 3.955604 -8.006762 2.125482 -0.000015 0.007511 -0.000000 -0.000002 -0.000000 -8.207786 -6.751667 -1.599560 -0.077001 -0.000003 0.000080 -0.000002 -44.370110 0.345938 0.153719 -0.000000 -0.000000 0.000000 -44.423679 -3.043532 -0.076700 0.000000 -0.000002 -0.000006 -8.728667 10.710559 -0.000009 -0.000000 -0.000000 -0.000001 -0.000679 9.278123 0.000000 -0.000000 -0.000000 8.207792 -6.751710 -1.599556 -0.074518 -0.000003 0.000081 -0.000002 -44.370014 0.346960 0.148822 0.000002 0.000000 -0.000001 -44.423664 -3.044403 -0.074314 0.000000 -0.000002 -0.000004 -8.728671 10.710558 0.000007 -0.000000 -0.000000 0.000000 -0.000680 9.278137 -0.000000 0.000000 -0.000001 
0.000006 104.270477 1.554256 0.000010 0.000003 -0.000113 -0.000005 10.181587 0.131522 0.000001 -0.000003 0.000084 -0.000000 9.893967 -1.470711 0.000001 0.000000 -0.000000 -0.000000 9.220802 -1.370642 0.000000 -0.000000 -0.000000 0.000001 16.740433 -2.049030 0.000000 -0.000000 -0.000000 0.000000 9.617859 1.685014 0.000000 0.000000 0.000000 0.000002 22.037384 7.501101 0.000000 -0.000000 0.000000 -4.569968 11.014880 -2.160881 0.000008 0.000001 -0.000038 -10.592736 -0.524791 -2.231701 -53.583059 79.847268 45.813825 -27.841503 0.000012 0.000572 69.654706 119.843947 -100.447624 -28.328827 0.000014 0.000024 -0.000321 -0.000043 0.000006 -2.464932 -1.573920 2.681988 356.220784 32.089322 337.511421 -3.215295 -1.872791 1.924410 341.263135 28.503320 340.268522 -2.654928 -1.528109 1.512761 142.563847 -200.741596 168.931916 -2.018834 -1.152000 1.108055 -0.000001 -0.000006 -0.000001 -9.108258 -0.518070 2.260166 280.394128 -3.284899 12.834065 -3.700077 -0.000125 0.001596 276.957969 20.787694 15.788776 -2.850063 -0.000117 -0.000213 -74.133978 18.765557 13.174127 -2.772163 -0.000018 -0.000031 0.000003 -0.000003 0.000006 -9.532456 -0.000268 0.000221 292.884713 -9.146558 0.660986 -3.700045 -0.000167 0.004013 286.148125 12.905604 10.858358 -2.950047 -0.000116 -0.001645 -86.758415 23.585381 21.974438 -2.946635 0.000005 -0.000160 -0.000002 0.000004 0.000001 -9.103585 -0.043242 -1.864868 288.338840 -2.791299 1.607355 -3.379334 -0.000198 -0.000819 291.731450 11.157475 4.106817 -2.889793 -0.000154 0.000711 -74.102457 18.171387 9.539666 -2.638802 -0.000002 0.000961 -0.000002 0.000000 0.000000 -8.076671 -0.486883 -3.805944 273.568611 3.789222 4.426261 -3.599886 -0.000278 -0.003509 289.416589 -21.961445 -4.419458 -2.099914 -0.000274 -0.005545 -67.916218 -14.634621 -4.270631 -2.115749 -0.000029 -0.003676 0.000003 0.000005 -0.000005 4.570446 11.014691 -2.160851 -0.000018 0.000010 -0.000021 10.592451 -0.524615 -2.232288 -45.176148 -73.766050 -34.672547 27.841696 -0.000051 -0.000058 252.528213 -67.809394 275.011748 28.328831 -0.000027 0.000023 0.000021 -0.000090 0.000004 2.466165 -1.576192 2.681778 354.148942 -14.113299 -352.887270 3.217824 -1.871988 1.916545 135.689849 161.988291 191.749952 2.656024 -1.528786 1.514601 274.928720 45.794926 37.577768 2.020876 -1.154084 1.115159 -0.000002 0.000004 0.000002 9.109064 -0.517767 2.259995 192.563291 -11.813113 -446.446163 3.700128 0.000122 -0.000361 -222.414319 -27.978530 -294.551525 2.850088 0.000178 0.000213 -261.227852 -19.578298 22.750561 2.774879 -0.000017 -0.000019 0.000001 -0.000002 0.000003 9.533422 0.000030 0.000106 -177.505456 5.093029 128.025189 3.700077 0.000254 -0.000292 -228.092173 -14.232660 -328.742633 2.950063 0.000198 -0.000214 -269.960522 -14.413475 -345.573694 2.952875 -0.000016 0.000072 -0.000003 0.000000 -0.000001 9.104656 -0.042753 -1.864991 -173.711655 2.635925 45.416206 3.150023 0.000330 -0.000077 121.955077 -3.006254 5.418543 2.950008 0.000152 -0.000087 79.837863 -7.425787 6.217093 2.644326 0.000045 0.000043 0.000001 0.000000 -0.000000 8.077927 -0.486645 -3.806212 -186.182323 -3.242478 -294.004154 3.599906 0.000391 0.014567 -241.868255 6.800112 -10.717479 2.099954 0.000235 0.007495 -277.253826 11.793788 -10.118524 2.125490 0.000001 0.007520 0.000000 -0.000000 0.000002 -8.207786 -6.751667 -1.599560 -0.077001 -0.000003 0.000080 -0.000002 -44.370110 0.345938 0.153719 -0.000000 -0.000000 0.000000 -44.423679 -3.043532 -0.076700 0.000000 -0.000002 -0.000006 -8.728667 10.710559 -0.000009 -0.000000 -0.000000 -0.000001 -0.000679 9.278123 0.000000 -0.000000 -0.000000 8.207792 -6.751710 -1.599556 -0.074518 -0.000003 0.000081 -0.000002 -44.370014 0.346960 0.148822 0.000002 0.000000 -0.000001 -44.423664 -3.044403 -0.074314 0.000000 -0.000002 -0.000004 -8.728671 10.710558 0.000007 -0.000000 -0.000000 0.000000 -0.000680 9.278137 -0.000000 0.000000 -0.000001 
